<svg version="1.1" xmlns="http://www.w3.org/2000/svg" viewBox="0 0 2048 2048" width="1024" height="1024" preserveAspectRatio="none">
<defs>
	<!-- <linearGradient id="Gradient1" gradientUnits="userSpaceOnUse" x1="1024.33" y1="2.17034" x2="1022.67" y2="2044.83">
		<stop class="stop0" offset="0" stop-opacity="1" stop-color="rgb(242,254,217)"/>
		<stop class="stop1" offset="1" stop-opacity="1" stop-color="rgb(250,230,247)"/>
	</linearGradient> -->
</defs>
<path transform="translate(0,0)" fill="url(#Gradient1)" d="M 0 0 L 2048 0 L 2048 2048 L 0 2048 L 0 0 z"/>
<!-- <path transform="translate(0,0)" fill="rgb(10,33,100)" d="M 487.273 1069.08 C 481.037 1020.67 481.308 971.639 488.08 923.297 C 510.062 779.898 587.284 650.792 703.229 563.595 C 826.328 472.351 980.997 434.548 1132.31 458.722 C 1400.05 498.994 1604.67 736.29 1601.49 1006.52 C 1601.24 1027.62 1600.11 1047.48 1596.94 1068.37 C 1602.96 1077.46 1614.41 1089.43 1621.64 1099.08 C 1646.14 1131.64 1662.51 1169.58 1669.4 1209.74 C 1675.73 1247.76 1675.18 1297.67 1651.78 1330.39 C 1639.91 1346.99 1621.21 1359.81 1600.79 1362.91 C 1580.53 1365.94 1559.89 1360.74 1543.48 1348.46 C 1525.61 1335.05 1513.74 1315.13 1510.46 1293.02 C 1471.16 1356.68 1406.57 1417.81 1343.84 1457.94 C 1321.39 1472.29 1293.18 1486.26 1269.19 1497.65 L 1268.95 1527.02 L 1270.09 1526.99 C 1301.62 1526.63 1324.95 1531.44 1347.92 1553.65 C 1391.97 1561.65 1502.97 1579.3 1529.44 1616.92 C 1533.36 1622.5 1535.54 1629.19 1534.12 1636 C 1531.69 1647.69 1520.44 1656.68 1510.76 1662.68 C 1473.58 1685.73 1426.53 1693.51 1384.27 1701.39 C 1234.22 1729.38 1079.69 1732.98 927.499 1726.48 C 836.669 1722.6 743.16 1715.33 654.566 1694.04 C 625.951 1687.16 564.782 1671.23 549.091 1643.99 C 546.024 1638.66 545.03 1632.91 546.678 1626.95 C 550.657 1612.56 566.331 1601.89 578.823 1595.24 C 609.905 1578.69 700.349 1553.75 733.769 1554.21 L 736.111 1552.02 C 758.601 1531.04 782.984 1526.08 812.881 1527.1 C 812.157 1516.86 812.158 1506.46 812.023 1496.19 C 707.292 1448.85 639.889 1389.97 573.728 1297.04 C 570.504 1311.94 565.912 1323.68 555.9 1335.51 C 542.167 1351.87 522.444 1362.05 501.147 1363.76 C 480.925 1365.03 461.027 1358.21 445.846 1344.79 C 422.054 1323.78 412.963 1291.79 411.077 1261.01 C 407.714 1206.15 426.374 1149.45 457.646 1104.71 C 466.593 1091.91 476.785 1080.66 487.273 1069.08 z"/> -->
<!-- <path transform="translate(0,0)" fill="rgb(199,212,249)" d="M 951.796 1536.54 C 1023.55 1545.55 1057.93 1546.32 1130.22 1536.55 C 1136.62 1596.58 1126.66 1648.38 1204.65 1660.09 C 1236.09 1664.71 1267.9 1665.27 1299.4 1660.93 C 1356.99 1653 1384.46 1602.38 1347.92 1553.65 C 1391.97 1561.65 1502.97 1579.3 1529.44 1616.92 C 1533.36 1622.5 1535.54 1629.19 1534.12 1636 C 1531.69 1647.69 1520.44 1656.68 1510.76 1662.68 C 1473.58 1685.73 1426.53 1693.51 1384.27 1701.39 C 1234.22 1729.38 1079.69 1732.98 927.499 1726.48 C 836.669 1722.6 743.16 1715.33 654.566 1694.04 C 625.951 1687.16 564.782 1671.23 549.091 1643.99 C 546.024 1638.66 545.03 1632.91 546.678 1626.95 C 550.657 1612.56 566.331 1601.89 578.823 1595.24 C 609.905 1578.69 700.349 1553.75 733.769 1554.21 C 690.283 1607.68 738.007 1663.71 798.61 1663.01 C 840.622 1662.52 892.036 1667.88 926.973 1638.35 C 951.357 1617.74 950.033 1566.07 951.796 1536.54 z"/> -->
<path transform="translate(0,0)" fill="rgb(252,233,155)" d="M 523.096 1078.97 C 522.746 1067.66 519.153 1046.86 518.172 1033.09 C 515.266 991.24 517.794 949.19 525.693 907.989 C 551.784 772.916 630.691 653.836 744.912 577.162 C 861.248 499.366 1003.41 470.184 1140.98 495.859 C 1279.45 521.119 1401.74 601.495 1479.85 718.584 C 1541.56 808.888 1572.08 916.881 1566.76 1026.13 C 1565.97 1045.4 1562.71 1059.98 1561.05 1077.97 C 1568.79 1090.8 1578.67 1098.44 1586.27 1109.12 C 1619.84 1150.34 1639.85 1200.53 1638.95 1254.15 C 1638.63 1284.78 1629.1 1327.85 1590.44 1330.03 C 1563.45 1331.56 1540.96 1304.26 1544.43 1278.57 C 1544.7 1276.59 1550.99 1270.65 1552.47 1269.13 C 1567.12 1255.87 1570.89 1245.38 1571.28 1226.18 L 1571.38 1225.26 C 1567.69 1212.01 1568.01 1201.47 1558.21 1189.77 C 1549.91 1179.86 1533.37 1180.81 1526.92 1192.03 C 1517.11 1209.1 1510.11 1227.44 1500.25 1244.93 C 1471.87 1294.46 1435.64 1339.06 1392.97 1376.98 C 1286.21 1470.64 1146.37 1517.62 1004.72 1507.4 C 846.674 1497.98 701.428 1417.38 609.81 1288.25 C 592.873 1264.5 577.939 1239.82 566.391 1212.97 C 557.539 1192.39 546.186 1169.57 522.853 1192.35 C 516.387 1205.41 514.342 1213.97 512.797 1228.44 C 512.971 1238.07 513.113 1244.22 517.742 1253.21 C 523.124 1263.67 533.608 1269.19 539.945 1278.21 C 540.375 1293.24 538.566 1304.71 527.444 1316.31 C 519.302 1324.94 508.037 1329.95 496.174 1330.2 C 460.492 1330.75 448.406 1292.8 445.356 1263.99 C 441.186 1200.21 465.398 1142.81 508.692 1096.24 C 513.774 1090.77 519.035 1085.24 523.096 1078.97 z"/>
<path transform="translate(0,0)" fill="rgb(250,198,111)" d="M 1479.85 718.584 C 1541.56 808.888 1572.08 916.881 1566.76 1026.13 C 1565.97 1045.4 1562.71 1059.98 1561.05 1077.97 C 1568.79 1090.8 1578.67 1098.44 1586.27 1109.12 C 1619.84 1150.34 1639.85 1200.53 1638.95 1254.15 C 1638.63 1284.78 1629.1 1327.85 1590.44 1330.03 C 1563.45 1331.56 1540.96 1304.26 1544.43 1278.57 C 1544.7 1276.59 1550.99 1270.65 1552.47 1269.13 C 1567.12 1255.87 1570.89 1245.38 1571.28 1226.18 L 1571.38 1225.26 C 1567.69 1212.01 1568.01 1201.47 1558.21 1189.77 C 1549.91 1179.86 1533.37 1180.81 1526.92 1192.03 C 1517.11 1209.1 1510.11 1227.44 1500.25 1244.93 C 1471.87 1294.46 1435.64 1339.06 1392.97 1376.98 C 1286.21 1470.64 1146.37 1517.62 1004.72 1507.4 C 846.674 1497.98 701.428 1417.38 609.81 1288.25 C 592.873 1264.5 577.939 1239.82 566.391 1212.97 C 557.539 1192.39 546.186 1169.57 522.853 1192.35 C 521.319 1182.52 526.574 1155.74 534.061 1148.96 C 546.199 1150.27 576.118 1192.31 584.093 1202.95 C 607.558 1234.26 632.052 1259.28 661.782 1284.95 C 768.384 1376.48 906.979 1421.92 1047.08 1411.27 C 1374.4 1387.26 1591.65 1073.21 1491.23 763.451 C 1487.43 751.724 1480.4 730.019 1479.85 718.584 z"/>
<path transform="translate(0,0)" fill="rgb(250,188,167)" d="M 1571.28 1226.18 C 1572.24 1229.56 1572.49 1231.66 1572.78 1235.17 C 1572.91 1235.23 1599.39 1235.62 1603.68 1235.47 C 1615.55 1235.07 1635.01 1256.61 1638.95 1254.15 C 1638.63 1284.78 1629.1 1327.85 1590.44 1330.03 C 1563.45 1331.56 1540.96 1304.26 1544.43 1278.57 C 1544.7 1276.59 1550.99 1270.65 1552.47 1269.13 C 1567.12 1255.87 1570.89 1245.38 1571.28 1226.18 z"/>
<path transform="translate(0,0)" fill="rgb(252,233,155)" d="M 1571.38 1225.26 C 1572.68 1224.77 1572 1224.8 1573.43 1225.31 C 1573.61 1228.95 1573.68 1229.88 1574.39 1233.42 C 1576.16 1230.13 1574.16 1229.22 1576.7 1225.52 C 1577.82 1223.89 1580.52 1218.16 1580.74 1216.28 C 1583.93 1189.35 1584.98 1162.05 1585.31 1134.94 C 1585.38 1129.12 1583.91 1113.29 1586.27 1109.12 C 1619.84 1150.34 1639.85 1200.53 1638.95 1254.15 C 1635.01 1256.61 1615.55 1235.07 1603.68 1235.47 C 1599.39 1235.62 1572.91 1235.23 1572.78 1235.17 C 1572.49 1231.66 1572.24 1229.56 1571.28 1226.18 L 1571.38 1225.26 z"/>
<path transform="translate(0,0)" fill="rgb(250,188,167)" d="M 445.356 1263.99 C 450.56 1263.4 468.265 1240.74 479.452 1238.65 C 490.75 1236.53 499.057 1235.17 510.67 1235.37 C 512.384 1233.2 512.243 1231.44 512.797 1228.44 C 512.971 1238.07 513.113 1244.22 517.742 1253.21 C 523.124 1263.67 533.608 1269.19 539.945 1278.21 C 540.375 1293.24 538.566 1304.71 527.444 1316.31 C 519.302 1324.94 508.037 1329.95 496.174 1330.2 C 460.492 1330.75 448.406 1292.8 445.356 1263.99 z"/>
<path transform="translate(0,0)" fill="rgb(10,33,100)" d="M 780.075 979.757 C 766.488 957.624 760.754 937.267 766.822 911.569 C 783.697 840.114 881.512 825.894 918.522 888.98 C 929.68 907.739 932.755 930.222 927.043 951.289 C 915.053 994.772 870.237 1022.78 826.201 1010.49 C 805.524 1004.97 793.804 995.528 780.075 979.757 z"/>
<path transform="translate(0,0)" fill="rgb(251,248,227)" d="M 804.373 876.326 C 816.129 874.515 827.107 882.631 828.824 894.4 C 830.541 906.169 822.339 917.083 810.557 918.707 C 798.905 920.313 788.139 912.222 786.441 900.584 C 784.743 888.946 792.749 878.116 804.373 876.326 z"/>
<path transform="translate(0,0)" fill="rgb(10,33,100)" d="M 1254.89 1011.08 C 1216.09 1020.29 1176.26 1000.42 1160.29 963.876 C 1144.33 927.334 1156.8 884.602 1189.93 862.393 C 1223.05 840.185 1267.32 844.867 1295.06 873.512 C 1322.8 902.158 1326.07 946.554 1302.81 978.948 C 1291.23 995.079 1274.21 1006.49 1254.89 1011.08 z"/>
<path transform="translate(0,0)" fill="rgb(251,248,227)" d="M 1195.08 876.218 C 1206.72 874.985 1217.21 883.277 1218.69 894.883 C 1220.18 906.489 1212.11 917.154 1200.54 918.889 C 1192.83 920.045 1185.1 916.939 1180.33 910.77 C 1175.56 904.601 1174.5 896.334 1177.56 889.163 C 1180.63 881.993 1187.33 877.04 1195.08 876.218 z"/>
<path transform="translate(0,0)" fill="rgb(250,188,167)" d="M 1302.81 978.948 C 1308.32 982.198 1326.71 978.422 1334.66 978.229 C 1383.65 977.039 1438.95 1020.55 1413.01 1072.8 C 1384.59 1130.04 1272.3 1129.78 1249.09 1067.39 C 1241.66 1047.39 1248.78 1029.53 1254.89 1011.08 C 1274.21 1006.49 1291.23 995.079 1302.81 978.948 z"/>
<path transform="translate(0,0)" fill="rgb(250,188,167)" d="M 780.075 979.757 C 793.804 995.528 805.524 1004.97 826.201 1010.49 C 826.41 1013.54 828.332 1019.84 829.312 1023.14 C 834.56 1040.02 837.466 1055.92 828.932 1072.72 C 806.658 1116.59 742.028 1123.98 701.457 1104.11 C 685.626 1096.36 669.756 1080.1 664.837 1062.99 C 660.701 1048.66 662.437 1033.26 669.663 1020.21 C 685.303 991.695 722.775 977.483 754.057 979.001 C 758.837 979.233 776.966 981.497 780.075 979.757 z"/>
<path transform="translate(0,0)" fill="rgb(10,33,100)" d="M 1041.46 989.915 C 1053.85 993.75 1067.84 998.946 1080.79 998.937 C 1088.82 998.932 1107.91 985.763 1111.54 1000.3 C 1116.51 1020.28 1111 1048.85 1103.82 1067.9 C 1091.72 1102.14 1067.48 1134.45 1024.4 1121.18 C 1001.66 1114.17 987.093 1090.88 980.538 1068.82 C 972.318 1049.75 968.096 1019.35 972.279 998.857 C 974.089 989.987 991.789 996.888 997.89 997.91 C 1013.1 1000.46 1027.27 994.76 1041.46 989.915 z"/>
<path transform="translate(0,0)" fill="rgb(246,145,127)" d="M 984.698 1064.79 C 994.113 1058.73 1004.31 1053.99 1015.01 1050.69 C 1045.74 1041.44 1072.22 1048.78 1099.31 1063.53 L 1103.82 1067.9 C 1091.72 1102.14 1067.48 1134.45 1024.4 1121.18 C 1001.66 1114.17 987.093 1090.88 980.538 1068.82 L 984.698 1064.79 z"/>
<path transform="translate(0,0)" fill="rgb(124,27,66)" d="M 992.999 1030.48 C 1035.65 1012.85 1050.31 1018.87 1091.42 1029.91 C 1095.69 1040.44 1098.84 1052.16 1099.31 1063.53 C 1072.22 1048.78 1045.74 1041.44 1015.01 1050.69 C 1004.31 1053.99 994.113 1058.73 984.698 1064.79 C 986.617 1052.77 987.947 1041.65 992.999 1030.48 z"/>
<path transform="translate(0,0)" fill="rgb(251,248,227)" d="M 799.477 589.202 C 816.593 588.422 833.345 598.317 838.795 614.967 C 856.79 669.933 767.421 722.694 724.752 730.958 C 672.65 734.213 668.385 697.048 694.366 661.318 C 715.694 631.986 762.342 595.058 799.477 589.202 z"/>
<path transform="translate(0,0)" fill="rgb(251,248,227)" d="M 653.551 761.04 C 660.285 760.816 665.158 761.075 671.384 764.073 C 678.294 767.316 683.554 773.273 685.917 780.532 C 693.504 803.681 678.821 815.566 658.81 821.52 C 654.262 821.853 647.846 821.342 643.728 819.894 C 620.025 811.558 619.605 779.785 639.906 767.278 C 644.736 764.302 648.446 762.968 653.551 761.04 z"/>
<path transform="translate(0,0)" fill="rgb(250,188,167)" d="M 1163.47 1530.5 C 1185.96 1526.4 1213.27 1517.14 1234.83 1509.75 C 1234.77 1521.16 1234.06 1545.24 1235.45 1555.67 L 1236.1 1556.76 C 1244.53 1570.65 1257.14 1562.07 1270.48 1561.36 C 1289.55 1560.35 1313.24 1563.25 1324.91 1580.33 C 1334.44 1593.76 1331.81 1613.19 1315.76 1620.43 C 1283.56 1634.95 1231.47 1630.04 1197.48 1623.3 C 1187.08 1621.24 1175.98 1613.9 1171.39 1605.61 C 1171.03 1604.95 1170.68 1604.28 1170.34 1603.61 C 1166.12 1584.87 1164.74 1550.83 1163.47 1530.5 z"/>
<path transform="translate(0,0)" fill="rgb(246,145,127)" d="M 1163.47 1530.5 C 1185.96 1526.4 1213.27 1517.14 1234.83 1509.75 C 1234.77 1521.16 1234.06 1545.24 1235.45 1555.67 L 1234.17 1556.54 C 1219.89 1566.2 1204.17 1568.32 1190.61 1580.05 C 1181.31 1588.1 1177.72 1595.72 1170.34 1603.61 C 1166.12 1584.87 1164.74 1550.83 1163.47 1530.5 z"/>
<path transform="translate(0,0)" fill="rgb(250,188,167)" d="M 847.145 1509.62 C 875.009 1519.16 889.899 1523.33 918.413 1530.12 C 917.287 1548.09 916.573 1597.59 908.254 1609.84 C 885.814 1632.25 843.552 1627.34 815.956 1629.41 C 731.57 1635.75 729.932 1559.56 810.357 1561.23 C 826.25 1561.56 840.461 1573.08 847.334 1553.14 C 847.492 1538.63 847.429 1524.13 847.145 1509.62 z"/>
<path transform="translate(0,0)" fill="rgb(246,145,127)" d="M 847.145 1509.62 C 875.009 1519.16 889.899 1523.33 918.413 1530.12 C 917.287 1548.09 916.573 1597.59 908.254 1609.84 C 899.269 1599.41 905.391 1594.61 897.45 1583.84 C 885.827 1568.07 866.292 1556.53 847.334 1553.14 C 847.492 1538.63 847.429 1524.13 847.145 1509.62 z"/>
<!-- <path transform="translate(0,0)" fill="rgb(10,33,100)" d="M 1610.49 458.24 C 1632.48 458.12 1636.11 475.76 1644.07 493.019 C 1659.96 527.518 1686.23 548.73 1719.98 564.741 C 1727.26 568.195 1737.17 575.243 1739.04 583.674 C 1743.97 607.223 1709.63 617.439 1692.85 627.706 C 1661.92 646.631 1649.87 673.268 1634.53 705.07 C 1630.44 713.543 1624.95 717.589 1615.59 720.047 C 1595.5 718.863 1591.67 705.166 1585.48 689.428 C 1568.64 646.64 1543.52 628.118 1502.37 609.874 C 1480.13 600.018 1481.14 573.941 1505.43 563.563 C 1523.44 555.866 1546.98 539.503 1560.5 525.164 C 1575.44 509.521 1583.92 489.968 1593.34 470.904 C 1597.11 463.316 1602.47 460.278 1610.49 458.24 z"/> -->
<!-- <path transform="translate(0,0)" fill="rgb(252,233,155)" d="M 1613.06 501.544 C 1616.29 506.409 1621.42 520.005 1625.41 526.668 C 1644.89 559.216 1665.36 571.804 1697.16 589.611 C 1667.05 601.441 1642.38 622.612 1625.56 650.364 C 1621.97 656.286 1616.57 669.815 1612.49 673.512 C 1611.15 670.151 1609.73 666.82 1608.24 663.521 C 1590.85 624.77 1566.11 602.618 1526.7 587.528 C 1563.23 573.79 1600 538.611 1613.06 501.544 z"/> -->
<!-- <path transform="translate(0,0)" fill="rgb(10,33,100)" d="M 457.26 493.266 C 482.898 492.863 501.492 517.669 518.016 534.022 C 542.139 557.894 596.785 621.24 535.889 638.997 C 499.88 640.105 472.89 595.583 451.514 571.988 C 430.302 548.573 410.103 500.693 457.26 493.266 z"/>
<path transform="translate(0,0)" fill="rgb(249,188,200)" d="M 461.841 522.26 C 466.11 523.946 469.822 527.019 473.251 530.029 C 484.498 539.899 533.359 590.804 533.17 603.075 C 533.121 606.247 531.407 607.941 529.342 610.032 C 526.553 609.392 524.462 608.578 522.131 606.878 C 511.224 598.92 458.386 539.962 458.151 528.896 C 458.087 525.874 460.045 524.363 461.841 522.26 z"/>
<path transform="translate(0,0)" fill="rgb(10,33,100)" d="M 372.14 648.178 C 397.491 646.206 441.667 669.354 467.023 675.684 C 492.259 681.984 503.524 707 476.689 719.501 C 468.021 720.048 459.623 717.945 451.333 715.553 C 430.043 709.387 409.005 702.684 388.064 695.378 C 376.738 691.427 363.398 686.89 357.273 675.6 C 355.319 671.999 354.825 668.276 356.206 664.33 C 359.507 654.898 363.483 652.283 372.14 648.178 z"/>
<path transform="translate(0,0)" fill="rgb(10,33,100)" d="M 579.033 428.081 C 601.623 426.909 603.693 439.864 611.395 458.655 C 620.94 481.941 630.902 505.475 638.824 529.3 C 643.171 542.372 636.405 550.05 624.761 555.231 C 620.923 555.804 616.869 555.833 613.127 554.726 C 605.197 552.38 600.48 544.41 596.879 537.465 C 588.902 522.08 559.332 455.799 564.817 440.665 C 567.183 434.138 572.956 430.656 579.033 428.081 z"/> -->
</svg>
